<svg xmlns="http://www.w3.org/2000/svg" viewBox="0 0 260 220">
  <defs>
    <linearGradient id="body" x1="0" y1="0" x2="0" y2="1">
      <stop offset="0" stop-color="#139492"/><stop offset="1" stop-color="#0A5A5A"/></linearGradient>
  </defs>
  
  <!-- ground shadow -->
  <ellipse cx="130" cy="196" rx="86" ry="13" fill="#14262B" opacity="0.10"/>
  <!-- wheels -->
  <circle cx="78" cy="178" r="24" fill="#14262B"/><circle cx="78" cy="178" r="11" fill="#33484E"/>
  <circle cx="182" cy="178" r="24" fill="#14262B"/><circle cx="182" cy="178" r="11" fill="#33484E"/>
  <!-- lower body -->
  <rect x="34" y="118" width="192" height="66" rx="30" fill="url(#body)"/>
  <!-- cabin/roof -->
  <path d="M70 124 C74 86 96 70 130 70 C164 70 186 86 190 124 Z" fill="url(#body)"/>
  <!-- windshield = face panel -->
  <path d="M88 120 C90 96 106 86 130 86 C154 86 170 96 172 120 Z" fill="#FFF7EE"/>
  <rect x="78" y="116" width="104" height="12" rx="6" fill="#FFF7EE"/>
  <!-- headlights -->
  <rect x="40" y="150" width="20" height="13" rx="6" fill="#FFD24C"/>
  <rect x="200" y="150" width="20" height="13" rx="6" fill="#FFD24C"/>
  <!-- grille hint -->
  <rect x="108" y="168" width="44" height="7" rx="3.5" fill="#14262B" opacity="0.18"/>
  <circle cx="96" cy="124" r="7" fill="#FF7A59" opacity="0.55"/><circle cx="164" cy="124" r="7" fill="#FF7A59" opacity="0.55"/><circle cx="112" cy="106" r="13" fill="#FFFFFF"/><circle cx="112" cy="107" r="6.5" fill="#14262B"/><circle cx="114" cy="104" r="2.2" fill="#FFFFFF"/><path d="M137 106 q11 9 22 0" fill="none" stroke="#14262B" stroke-width="4" stroke-linecap="round"/><path d="M114 119 q16 14 32 0" fill="none" stroke="#FFB02E" stroke-width="6" stroke-linecap="round"/>
</svg>